# xmcd
# Track frame offsets:
# 150
# 15942
# 29590
# 47987
# 68255
# 86400
# 99442
# 114772
# 132090
# 147370
# 162577
# 177100
# 194475
# 208627
# 226967
#
# Disc length: 3221 seconds
# Revision: 0
# Processed by: cddbd v1.5.1PL0 Copyright (c) Steve Scherf et al.
# Submitted via: VisiTrax 2.9.10.228 - For more info visit www.synapsa.com
#
DISCID=bf0c930f
DTITLE=Stewart, Rod - Stardust - The Great American Songbook - Volume III
DYEAR=2004
DGENRE=
TTITLE0=Embraceable You
TTITLE1=For Sentimental Reasons
TTITLE2=Blue Moon
TTITLE3=What a Wonderful World
TTITLE4=Stardust
TTITLE5=Manhattan
TTITLE6='S Wonderful
TTITLE7=Isn't it Romantic
TTITLE8=I Can't get Started
TTITLE9=But not for Me
TTITLE10=A Kiss to Build a Dream on
TTITLE11=Baby' it's Cold Outside
TTITLE12=Night and Day
TTITLE13=A Nightingale Sang in Berkley Square
TTITLE14=You Belong to Me
EXTD=
EXTT0=
EXTT1=
EXTT2=
EXTT3=
EXTT4=
EXTT5=
EXTT6=
EXTT7=
EXTT8=
EXTT9=
EXTT10=
EXTT11=
EXTT12=
EXTT13=
EXTT14=
PLAYORDER=
